#!OML:ASF E:\Steps\Project 1\Capture day 1\Session 2\Subject.ASF
:FULLY-SPECIFIED
:DEGREES
590
root 9.1738 18.0917 -1.25524 -152.759 0.899589 177.865
lowerback -20.2761 -0.749235 -9.86152
upperback 1.31247 2.19242 -3.18141
thorax 12.7679 0.621653 2.72676
lowerneck -3.72938 -2.24145 -1.66716
upperneck 18.6589 -5.40869 6.80764
head 6.49943 -2.68597 2.03406
rclavicle -9.54166e-015 -1.74931e-014
rhumerus -34.638 -8.8135 -82.566
rradius 42.3239
rwrist -7.92239
rhand -7.56829 -53.4661
rfingers 7.12502
rthumb 18.3242 -82.623
lclavicle -9.54166e-015 -1.74931e-014
lhumerus -31.9665 2.45204 78.3968
lradius 33.4232
lwrist -3.38508
lhand -21.0571 -11.2035
lfingers 7.12502
lthumb 5.31919 18.7097
rfemur -37.8977 -0.854756 19.4448
rtibia 55.4277
rfoot 1.03244 -11.1463
rtoes -37.6995
lfemur -58.8294 -6.60834 -21.985
ltibia 49.0923
lfoot -15.053 2.05752
ltoes -23.8177
591
root 9.1534 18.146 -1.31219 -152.946 0.846707 177.907
lowerback -20.1087 -0.866923 -9.79016
upperback 1.42863 1.9717 -3.05963
thorax 12.8276 0.505826 2.75222
lowerneck -3.67779 -2.0092 -1.66366
upperneck 18.5187 -5.0019 6.54992
head 6.41964 -2.50404 1.98169
rclavicle 4.77083e-015 -3.4191e-014
rhumerus -34.7151 -8.78951 -82.2839
rradius 42.3389
rwrist -7.74405
rhand -6.7212 -54.579
rfingers 7.12502
rthumb 19.1389 -83.6574
lclavicle 4.77083e-015 -3.4191e-014
lhumerus -31.668 2.69146 78.4561
lradius 33.4275
lwrist -3.70518
lhand -21.1454 -11.63
lfingers 7.12502
lthumb 5.23392 18.2854
rfemur -39.4755 -1.23037 19.5913
rtibia 58.9072
rfoot 0.392744 -11.1721
rtoes -37.3027
lfemur -57.8547 -6.6689 -22.0405
ltibia 48.2058
lfoot -14.9298 1.93044
ltoes -23.7055
592
root 9.13282 18.1994 -1.36812 -153.044 0.784495 177.914
lowerback -20.0543 -0.964688 -9.71551
upperback 1.53575 1.81186 -3.02077
thorax 12.9398 0.424023 2.70313
lowerneck -4.1892 -2.07089 -1.71853
upperneck 19.0295 -5.13499 6.47612
head 6.67853 -2.56514 1.94809
rclavicle -2.78299e-015 4.77083e-015
rhumerus -34.7939 -8.97162 -82.1478
rradius 42.1893
rwrist -7.73533
rhand -7.39768 -53.7023
rfingers 7.12502
rthumb 18.4883 -82.8437
lclavicle -2.78299e-015 4.77083e-015
lhumerus -31.3065 2.74123 78.4489
lradius 33.483
lwrist -3.87951
lhand -21.2536 -12.1945
lfingers 7.12502
lthumb 5.12953 17.7234
rfemur -41.1756 -1.57861 19.6938
rtibia 62.3969
rfoot -0.378787 -11.0846
rtoes -36.306
lfemur -56.9206 -6.66824 -22.1712
ltibia 47.1855
lfoot -14.7205 1.79148
ltoes -24.4081
593
root 9.11438 18.2519 -1.42142 -153.153 0.747223 177.943
lowerback -19.9627 -1.03868 -9.62268
upperback 1.59706 1.67649 -3.00465
thorax 12.9747 0.362175 2.62597
lowerneck -3.58272 -1.91525 -1.42236
upperneck 18.1971 -4.74961 6.11731
head 6.27484 -2.3905 1.82396
rclavicle -7.15625e-015 8.5875e-014
rhumerus -34.9968 -9.23218 -82.0287
rradius 42.092
rwrist -7.54885
rhand -7.5809 -53.509
rfingers 7.12502
rthumb 18.3121 -82.667
lclavicle -7.15625e-015 8.5875e-014
lhumerus -31.1754 2.39719 78.4758
lradius 33.74
lwrist -3.68493
lhand -21.4695 -12.7271
lfingers 7.12502
lthumb 4.92106 17.1957
rfemur -42.8662 -1.75875 19.7803
rtibia 65.8713
rfoot -0.938995 -10.866
rtoes -33.3778
lfemur -55.9987 -6.62297 -22.2653
ltibia 46.165
lfoot -14.5628 1.73231
ltoes -24.7226
594
root 9.09848 18.3035 -1.47745 -153.342 0.704048 178.031
lowerback -19.7635 -1.08666 -9.4898
upperback 1.60969 1.54327 -2.96897
thorax 12.8886 0.309109 2.54896
lowerneck -3.58175 -1.88438 -1.53991
upperneck 18.3663 -4.74951 6.20053
head 6.33234 -2.39874 1.86907
rclavicle -7.95139e-015 -1.74931e-014
rhumerus -35.314 -9.4183 -81.8425
rradius 41.9258
rwrist -7.50617
rhand -7.62695 -53.5723
rfingers 7.12502
rthumb 18.2678 -82.7345
lclavicle -7.95139e-015 -1.74931e-014
lhumerus -31.2655 2.04171 78.507
lradius 34.0883
lwrist -3.51626
lhand -21.4915 -12.0256
lfingers 7.12502
lthumb 4.89974 17.8978
rfemur -44.4773 -1.8834 19.9676
rtibia 69.247
rfoot -1.43924 -10.5759
rtoes -32.9089
lfemur -55.0351 -6.54942 -22.2991
ltibia 45.1952
lfoot -14.3805 1.81097
ltoes -25.5765
595
root 9.08571 18.3521 -1.5329 -153.435 0.635407 178.191
lowerback -19.6653 -1.12758 -9.34015
upperback 1.61696 1.42217 -2.90158
thorax 12.8521 0.258107 2.50295
lowerneck -3.91745 -1.86985 -1.612
upperneck 18.818 -4.82397 6.34154
head 6.54314 -2.42865 1.91403
rclavicle 2.34566e-014 0
rhumerus -35.5672 -9.59003 -81.6438
rradius 41.7668
rwrist -7.44158
rhand -7.6299 -53.5179
rfingers 7.12502
rthumb 18.2649 -82.6804
lclavicle 2.34566e-014 0
lhumerus -31.2116 1.8821 78.5009
lradius 34.2918
lwrist -3.43628
lhand -21.3603 -11.0327
lfingers 7.12502
lthumb 5.02649 18.8877
rfemur -46.256 -1.96392 20.2785
rtibia 72.5346
rfoot -2.30478 -10.4205
rtoes -34.8797
lfemur -54.229 -6.41622 -22.2325
ltibia 44.3201
lfoot -14.2803 1.80582
ltoes -25.8999
596
root 9.07206 18.4004 -1.58909 -153.498 0.414096 178.367
lowerback -19.6675 -1.24606 -9.14322
upperback 1.70851 1.18781 -2.75839
thorax 12.9829 0.141872 2.48012
lowerneck -4.20315 -1.76934 -1.67777
upperneck 19.0989 -4.69865 6.27538
head 6.67742 -2.3712 1.9081
rclavicle -8.34896e-015 6.83819e-014
rhumerus -35.6068 -9.54428 -81.4888
rradius 41.6446
rwrist -7.27794
rhand -7.42047 -54.0756
rfingers 7.12502
rthumb 18.4664 -83.219
lclavicle -8.34896e-015 6.83819e-014
lhumerus -30.7941 2.18646 78.4486
lradius 34.1742
lwrist -3.52257
lhand -21.3696 -10.9267
lfingers 7.12502
lthumb 5.01745 18.9939
rfemur -48.0006 -2.12941 20.6474
rtibia 75.6589
rfoot -3.5718 -10.3561
rtoes -35.6035
lfemur -53.4816 -6.37969 -22.0886
ltibia 43.5486
lfoot -14.3574 1.56206
ltoes -24.3474
597
root 9.05678 18.45 -1.64542 -153.695 0.0963001 178.4
lowerback -19.5442 -1.10809 -9.13162
upperback 1.8365 0.803929 -2.62927
thorax 13.0636 -0.270812 2.44918
lowerneck -3.91102 -1.65811 -1.78533
upperneck 18.6741 -4.44848 6.19353
head 6.47866 -2.26473 1.9234
rclavicle 7.95139e-015 -1.19271e-014
rhumerus -35.5987 -9.59204 -81.2968
rradius 41.3153
rwrist -6.92162
rhand -7.16113 -54.4856
rfingers 7.12502
rthumb 18.7158 -83.6052
lclavicle 7.95139e-015 -1.19271e-014
lhumerus -30.4283 2.6683 78.3789
lradius 34.0914
lwrist -3.69115
lhand -21.5043 -11.1516
lfingers 7.12502
lthumb 4.8874 18.7721
rfemur -49.5041 -2.50177 20.9251
rtibia 78.5623
rfoot -4.89678 -10.2884
rtoes -35.7242
lfemur -52.5489 -6.50504 -22.0975
ltibia 42.6996
lfoot -14.2964 1.36765
ltoes -24.3214
598
root 9.04417 18.4982 -1.69386 -153.759 -0.106818 178.335
lowerback -19.4231 -1.30656 -9.18067
upperback 1.81749 0.527701 -2.55661
thorax 13.001 -0.400747 2.47617
lowerneck -3.87595 -1.57405 -1.92621
upperneck 18.9102 -4.38189 6.24226
head 6.54798 -2.2492 1.96669
rclavicle 2.38542e-015 -7.95139e-015
rhumerus -35.8349 -9.89839 -81.0469
rradius 40.9988
rwrist -6.51096
rhand -7.26167 -53.8425
rfingers 7.12502
rthumb 18.6191 -82.9714
lclavicle 2.38542e-015 -7.95139e-015
lhumerus -30.3662 2.97927 78.3026
lradius 34.2209
lwrist -3.72084
lhand -21.6283 -11.1794
lfingers 7.12502
lthumb 4.76772 18.7469
rfemur -51.2725 -2.78205 21.1005
rtibia 81.6675
rfoot -5.85995 3.28753
rtoes -35.7963
lfemur -51.8112 -6.55728 -22.2382
ltibia 41.8619
lfoot -14.139 1.35276
ltoes -26.1974
599
root 9.03576 18.5429 -1.73869 -153.654 -0.299032 178.332
lowerback -19.3417 -1.44356 -9.20032
upperback 1.70843 0.322093 -2.50531
thorax 12.8487 -0.491608 2.48597
lowerneck -4.15195 -1.54142 -1.94957
upperneck 19.5444 -4.45526 6.2697
head 6.80444 -2.29269 1.9684
rclavicle 8.74653e-015 3.4191e-014
rhumerus -36.2424 -10.2462 -80.8192
rradius 40.8381
rwrist -6.33486
rhand -7.64896 -52.8168
rfingers 7.12502
rthumb 18.2466 -81.981
lclavicle 8.74653e-015 3.4191e-014
lhumerus -30.3467 3.05493 78.1996
lradius 34.3583
lwrist -3.66855
lhand -21.7915 -11.1212
lfingers 7.12502
lthumb 4.61011 18.8087
rfemur -53.3013 -2.92789 21.3208
rtibia 84.8199
rfoot -7.25169 16.9405
rtoes -35.1931
lfemur -51.3903 -6.5202 -22.3074
ltibia 41.244
lfoot -14.1902 1.39413
ltoes -28.5192
600
root 9.02782 18.5833 -1.78252 -153.453 -0.626914 178.343
lowerback -19.3498 -1.55601 -9.10047
upperback 1.57648 0.13233 -2.49491
thorax 12.7198 -0.566767 2.38713
lowerneck -3.85412 -1.5698 -1.89762
upperneck 19.2331 -4.50168 6.43071
head 6.65648 -2.30843 2.01214
rclavicle 1.23246e-014 7.07673e-014
rhumerus -36.6486 -10.505 -80.6281
rradius 40.6551
rwrist -6.40231
rhand -7.59795 -52.6084
rfingers 7.12502
rthumb 18.2957 -81.768
lclavicle 1.23246e-014 7.07673e-014
lhumerus -30.356 2.93171 78.0882
lradius 34.5935
lwrist -3.48743
lhand -21.9602 -10.9446
lfingers 7.12502
lthumb 4.44717 18.9887
rfemur -55.4366 -3.18368 21.6086
rtibia 87.5034
rfoot -8.91668 30.6684
rtoes -34.94
lfemur -51.1384 -6.64644 -22.2696
ltibia 40.7405
lfoot -14.1874 1.39744
ltoes -29.9927
601
root 9.01433 18.626 -1.83694 -153.504 -0.741296 178.345
lowerback -19.3557 -1.68471 -9.01219
upperback 1.58926 -0.0597394 -2.46652
thorax 12.7591 -0.651257 2.31112
lowerneck -3.65389 -1.53399 -1.94367
upperneck 19.0938 -4.45055 6.48318
head 6.57588 -2.29119 2.0429
rclavicle 4.77083e-015 6.04305e-014
rhumerus -36.8597 -10.6356 -80.4396
rradius 40.3474
rwrist -6.40343
rhand -7.16926 -53.1762
rfingers 7.12502
rthumb 18.708 -82.2966
lclavicle 4.77083e-015 6.04305e-014
lhumerus -30.1629 3.33067 77.9335
lradius 34.6395
lwrist -3.50952
lhand -21.9948 -10.6889
lfingers 7.12502
lthumb 4.41383 19.2451
rfemur -57.2595 -3.24822 21.7408
rtibia 89.3928
rfoot -10.7371 44.4797
rtoes -35.4024
lfemur -50.3924 -6.75187 -22.2633
ltibia 39.9115
lfoot -14.0013 1.31414
ltoes -27.484
602
root 8.99564 18.676 -1.91211 -154.204 -0.519714 178.485
lowerback -19.0417 -1.67564 -8.88318
upperback 1.86002 -0.0816169 -2.38102
thorax 12.8943 -0.65752 2.32749
lowerneck -3.82526 -1.45724 -1.90371
upperneck 19.2748 -4.29262 6.12591
head 6.6487 -2.23226 1.93043
rclavicle -5.1684e-015 -6.83819e-014
rhumerus -36.9465 -10.967 -80.1319
rradius 39.9996
rwrist -6.08323
rhand -6.95681 -53.8721
rfingers 7.12502
rthumb 18.9124 -82.9727
lclavicle -5.1684e-015 -6.83819e-014
lhumerus -29.7168 4.01543 77.8596
lradius 34.4362
lwrist -3.59957
lhand -21.9678 -10.5888
lfingers 7.12502
lthumb 4.43983 19.3446
rfemur -58.1097 -2.98621 21.7725
rtibia 90.1975
rfoot -13.2936 58.37
rtoes -36.0314
lfemur -48.6182 -6.5763 -22.2839
ltibia 38.6382
lfoot -13.8141 1.44284
ltoes -25.3875
603
root 8.98549 18.7214 -1.97912 -154.763 -0.51211 178.689
lowerback -18.7693 -1.65596 -8.75069
upperback 2.07848 -0.093906 -2.26434
thorax 12.9909 -0.658344 2.38078
lowerneck -4.01525 -1.41163 -1.7504
upperneck 19.4267 -4.19069 5.80492
head 6.71772 -2.18927 1.80636
rclavicle -3.18055e-015 1.19271e-014
rhumerus -37.1775 -11.2824 -79.8335
rradius 39.8164
rwrist -5.86361
rhand -7.07571 -54.3177
rfingers 7.12502
rthumb 18.798 -83.4294
lclavicle -3.18055e-015 1.19271e-014
lhumerus -29.3829 4.22514 77.8946
lradius 34.3536
lwrist -3.3752
lhand -22.0892 -10.7861
lfingers 7.12502
lthumb 4.32262 19.1497
rfemur -58.9602 -2.85595 22.0027
rtibia 90.1395
rfoot -16.9405 72.3748
rtoes -36.2328
lfemur -47.1803 -6.37204 -22.1981
ltibia 37.6264
lfoot -13.592 1.49202
ltoes -26.6179
604
root 8.98451 18.755 -2.01581 -154.49 -0.863202 178.671
lowerback -18.8664 -1.83288 -8.77818
upperback 1.94935 -0.332528 -2.20294
thorax 12.9242 -0.76903 2.39554
lowerneck -3.57494 -1.33524 -1.65777
upperneck 18.9417 -4.0232 5.75719
head 6.4754 -2.11182 1.79387
rclavicle 1.19271e-015 7.63333e-014
rhumerus -37.664 -11.4063 -79.683
rradius 39.7581
rwrist -5.77885
rhand -7.38564 -54.2132
rfingers 7.12502
rthumb 18.4999 -83.3535
lclavicle 1.19271e-015 7.63333e-014
lhumerus -29.3316 4.18404 77.8372
lradius 34.4777
lwrist -3.12827
lhand -22.2927 -10.8038
lfingers 7.12502
lthumb 4.12617 19.136
rfemur -60.9757 -3.1044 22.2545
rtibia 89.3659
rfoot -36.1147 86.1911
rtoes -36.2932
lfemur -47.0909 -6.44285 -22.1779
ltibia 37.1924
lfoot -13.4093 1.17385
ltoes -26.9645
